<mxfile host="app.diagrams.net" modified="2023-10-10T15:21:01.338Z" agent="Mozilla/5.0 (Windows NT 10.0; Win64; x64) AppleWebKit/537.36 (KHTML, like Gecko) Chrome/114.0.0.0 Safari/537.36" etag="PvbjrybAexQ9DBYMxjY2" version="22.0.4" type="device">
  <diagram name="Página-1" id="iedd-g0ic7j_8xNG09oi">
    <mxGraphModel dx="1013" dy="715" grid="1" gridSize="10" guides="1" tooltips="1" connect="1" arrows="1" fold="1" page="1" pageScale="1" pageWidth="827" pageHeight="1169" math="0" shadow="0">
      <root>
        <mxCell id="0" />
        <mxCell id="1" parent="0" />
        <mxCell id="muNRo6QNs-Cm7K3Dtx6o-3" value="MIEMBROS TRIPULACIÓN" style="swimlane;childLayout=stackLayout;horizontal=1;startSize=50;horizontalStack=0;rounded=1;fontSize=14;fontStyle=0;strokeWidth=2;resizeParent=0;resizeLast=1;shadow=0;dashed=0;align=center;arcSize=4;whiteSpace=wrap;html=1;" vertex="1" parent="1">
          <mxGeometry x="140" y="10" width="160" height="90" as="geometry" />
        </mxCell>
        <mxCell id="muNRo6QNs-Cm7K3Dtx6o-4" value="&lt;u&gt;Código&lt;/u&gt;&lt;br&gt;nombre&lt;br&gt;" style="align=left;strokeColor=none;fillColor=none;spacingLeft=4;fontSize=12;verticalAlign=top;resizable=0;rotatable=0;part=1;html=1;" vertex="1" parent="muNRo6QNs-Cm7K3Dtx6o-3">
          <mxGeometry y="50" width="160" height="40" as="geometry" />
        </mxCell>
        <mxCell id="muNRo6QNs-Cm7K3Dtx6o-5" value="PILOTO" style="swimlane;childLayout=stackLayout;horizontal=1;startSize=50;horizontalStack=0;rounded=1;fontSize=14;fontStyle=0;strokeWidth=2;resizeParent=0;resizeLast=1;shadow=0;dashed=0;align=center;arcSize=4;whiteSpace=wrap;html=1;" vertex="1" parent="1">
          <mxGeometry x="240" y="240" width="160" height="90" as="geometry" />
        </mxCell>
        <mxCell id="muNRo6QNs-Cm7K3Dtx6o-6" value="&lt;u&gt;Código&lt;/u&gt;&lt;br&gt;horas de vuelo" style="align=left;strokeColor=none;fillColor=none;spacingLeft=4;fontSize=12;verticalAlign=top;resizable=0;rotatable=0;part=1;html=1;" vertex="1" parent="muNRo6QNs-Cm7K3Dtx6o-5">
          <mxGeometry y="50" width="160" height="40" as="geometry" />
        </mxCell>
        <mxCell id="muNRo6QNs-Cm7K3Dtx6o-9" value="" style="endArrow=none;html=1;rounded=0;" edge="1" parent="1" source="muNRo6QNs-Cm7K3Dtx6o-8" target="muNRo6QNs-Cm7K3Dtx6o-5">
          <mxGeometry relative="1" as="geometry">
            <mxPoint x="146" y="100" as="sourcePoint" />
            <mxPoint x="220" y="240" as="targetPoint" />
          </mxGeometry>
        </mxCell>
        <mxCell id="muNRo6QNs-Cm7K3Dtx6o-10" value="" style="endArrow=none;html=1;rounded=0;" edge="1" parent="1" source="muNRo6QNs-Cm7K3Dtx6o-1" target="muNRo6QNs-Cm7K3Dtx6o-8">
          <mxGeometry relative="1" as="geometry">
            <mxPoint x="220" y="130" as="sourcePoint" />
            <mxPoint x="220" y="240" as="targetPoint" />
          </mxGeometry>
        </mxCell>
        <mxCell id="muNRo6QNs-Cm7K3Dtx6o-8" value="ES" style="triangle;whiteSpace=wrap;html=1;rotation=90;" vertex="1" parent="1">
          <mxGeometry x="203" y="160" width="34" height="50" as="geometry" />
        </mxCell>
        <mxCell id="muNRo6QNs-Cm7K3Dtx6o-11" value="(0,1)" style="text;html=1;align=center;verticalAlign=middle;resizable=0;points=[];autosize=1;strokeColor=none;fillColor=none;" vertex="1" parent="1">
          <mxGeometry x="250" y="200" width="50" height="30" as="geometry" />
        </mxCell>
        <mxCell id="muNRo6QNs-Cm7K3Dtx6o-13" value="(1,1)" style="text;html=1;align=center;verticalAlign=middle;resizable=0;points=[];autosize=1;strokeColor=none;fillColor=none;" vertex="1" parent="1">
          <mxGeometry x="210" y="140" width="50" height="30" as="geometry" />
        </mxCell>
        <mxCell id="muNRo6QNs-Cm7K3Dtx6o-16" value="" style="endArrow=none;html=1;rounded=0;" edge="1" parent="1" source="muNRo6QNs-Cm7K3Dtx6o-17" target="muNRo6QNs-Cm7K3Dtx6o-24">
          <mxGeometry relative="1" as="geometry">
            <mxPoint x="250" y="195" as="sourcePoint" />
            <mxPoint x="570" y="55" as="targetPoint" />
          </mxGeometry>
        </mxCell>
        <mxCell id="muNRo6QNs-Cm7K3Dtx6o-18" value="" style="endArrow=none;html=1;rounded=0;" edge="1" parent="1" source="muNRo6QNs-Cm7K3Dtx6o-3" target="muNRo6QNs-Cm7K3Dtx6o-17">
          <mxGeometry relative="1" as="geometry">
            <mxPoint x="350" y="55" as="sourcePoint" />
            <mxPoint x="570" y="59" as="targetPoint" />
          </mxGeometry>
        </mxCell>
        <mxCell id="muNRo6QNs-Cm7K3Dtx6o-17" value="Regresan&lt;br&gt;1xN" style="shape=rhombus;perimeter=rhombusPerimeter;whiteSpace=wrap;html=1;align=center;" vertex="1" parent="1">
          <mxGeometry x="400" y="25" width="120" height="60" as="geometry" />
        </mxCell>
        <mxCell id="muNRo6QNs-Cm7K3Dtx6o-19" value="VUELO" style="swimlane;childLayout=stackLayout;horizontal=1;startSize=50;horizontalStack=0;rounded=1;fontSize=14;fontStyle=0;strokeWidth=2;resizeParent=0;resizeLast=1;shadow=0;dashed=0;align=center;arcSize=4;whiteSpace=wrap;html=1;" vertex="1" parent="1">
          <mxGeometry x="430" y="370" width="160" height="120" as="geometry" />
        </mxCell>
        <mxCell id="muNRo6QNs-Cm7K3Dtx6o-20" value="&lt;u&gt;Código vuelo&lt;/u&gt;&lt;br&gt;origen&lt;br&gt;destino&lt;br&gt;hora" style="align=left;strokeColor=none;fillColor=none;spacingLeft=4;fontSize=12;verticalAlign=top;resizable=0;rotatable=0;part=1;html=1;" vertex="1" parent="muNRo6QNs-Cm7K3Dtx6o-19">
          <mxGeometry y="50" width="160" height="70" as="geometry" />
        </mxCell>
        <mxCell id="muNRo6QNs-Cm7K3Dtx6o-21" value="AVIÓN" style="swimlane;childLayout=stackLayout;horizontal=1;startSize=50;horizontalStack=0;rounded=1;fontSize=14;fontStyle=0;strokeWidth=2;resizeParent=0;resizeLast=1;shadow=0;dashed=0;align=center;arcSize=4;whiteSpace=wrap;html=1;" vertex="1" parent="1">
          <mxGeometry x="620" y="240" width="160" height="90" as="geometry" />
        </mxCell>
        <mxCell id="muNRo6QNs-Cm7K3Dtx6o-22" value="&lt;u&gt;Código avión&lt;/u&gt;&lt;br&gt;tipo" style="align=left;strokeColor=none;fillColor=none;spacingLeft=4;fontSize=12;verticalAlign=top;resizable=0;rotatable=0;part=1;html=1;" vertex="1" parent="muNRo6QNs-Cm7K3Dtx6o-21">
          <mxGeometry y="50" width="160" height="40" as="geometry" />
        </mxCell>
        <mxCell id="muNRo6QNs-Cm7K3Dtx6o-24" value="BASE" style="swimlane;childLayout=stackLayout;horizontal=1;startSize=50;horizontalStack=0;rounded=1;fontSize=14;fontStyle=0;strokeWidth=2;resizeParent=0;resizeLast=1;shadow=0;dashed=0;align=center;arcSize=4;whiteSpace=wrap;html=1;" vertex="1" parent="1">
          <mxGeometry x="620" y="12.5" width="160" height="85" as="geometry" />
        </mxCell>
        <mxCell id="muNRo6QNs-Cm7K3Dtx6o-25" value="&lt;u&gt;Código base&lt;/u&gt;" style="align=left;strokeColor=none;fillColor=none;spacingLeft=4;fontSize=12;verticalAlign=top;resizable=0;rotatable=0;part=1;html=1;" vertex="1" parent="muNRo6QNs-Cm7K3Dtx6o-24">
          <mxGeometry y="50" width="160" height="35" as="geometry" />
        </mxCell>
        <mxCell id="muNRo6QNs-Cm7K3Dtx6o-26" value="(1,n)" style="text;html=1;align=center;verticalAlign=middle;resizable=0;points=[];autosize=1;strokeColor=none;fillColor=none;" vertex="1" parent="1">
          <mxGeometry x="323.5" y="25" width="50" height="30" as="geometry" />
        </mxCell>
        <mxCell id="muNRo6QNs-Cm7K3Dtx6o-27" value="(1,1)" style="text;html=1;align=center;verticalAlign=middle;resizable=0;points=[];autosize=1;strokeColor=none;fillColor=none;" vertex="1" parent="1">
          <mxGeometry x="550" y="25" width="50" height="30" as="geometry" />
        </mxCell>
        <mxCell id="muNRo6QNs-Cm7K3Dtx6o-30" value="" style="endArrow=none;html=1;rounded=0;" edge="1" parent="1" source="muNRo6QNs-Cm7K3Dtx6o-29" target="muNRo6QNs-Cm7K3Dtx6o-21">
          <mxGeometry relative="1" as="geometry">
            <mxPoint x="320" y="322.5" as="sourcePoint" />
            <mxPoint x="700" y="222.5" as="targetPoint" />
          </mxGeometry>
        </mxCell>
        <mxCell id="muNRo6QNs-Cm7K3Dtx6o-31" value="" style="endArrow=none;html=1;rounded=0;" edge="1" parent="1" source="muNRo6QNs-Cm7K3Dtx6o-24" target="muNRo6QNs-Cm7K3Dtx6o-29">
          <mxGeometry relative="1" as="geometry">
            <mxPoint x="700" y="110" as="sourcePoint" />
            <mxPoint x="700" y="222.5" as="targetPoint" />
          </mxGeometry>
        </mxCell>
        <mxCell id="muNRo6QNs-Cm7K3Dtx6o-29" value="Revisa&lt;br&gt;1xN" style="shape=rhombus;perimeter=rhombusPerimeter;whiteSpace=wrap;html=1;align=center;" vertex="1" parent="1">
          <mxGeometry x="640" y="137.5" width="120" height="60" as="geometry" />
        </mxCell>
        <mxCell id="muNRo6QNs-Cm7K3Dtx6o-32" value="(1,n)" style="text;html=1;align=center;verticalAlign=middle;resizable=0;points=[];autosize=1;strokeColor=none;fillColor=none;" vertex="1" parent="1">
          <mxGeometry x="690" y="200" width="50" height="30" as="geometry" />
        </mxCell>
        <mxCell id="muNRo6QNs-Cm7K3Dtx6o-33" value="(1,1)" style="text;html=1;align=center;verticalAlign=middle;resizable=0;points=[];autosize=1;strokeColor=none;fillColor=none;" vertex="1" parent="1">
          <mxGeometry x="690" y="100" width="50" height="30" as="geometry" />
        </mxCell>
        <mxCell id="muNRo6QNs-Cm7K3Dtx6o-34" value="Trabajan&lt;br&gt;NxM" style="shape=rhombus;perimeter=rhombusPerimeter;whiteSpace=wrap;html=1;align=center;" vertex="1" parent="1">
          <mxGeometry x="60" y="400" width="120" height="60" as="geometry" />
        </mxCell>
        <mxCell id="muNRo6QNs-Cm7K3Dtx6o-46" value="(0,1)" style="text;html=1;align=center;verticalAlign=middle;resizable=0;points=[];autosize=1;strokeColor=none;fillColor=none;" vertex="1" parent="1">
          <mxGeometry x="130" y="200" width="50" height="30" as="geometry" />
        </mxCell>
        <mxCell id="muNRo6QNs-Cm7K3Dtx6o-47" value="" style="endArrow=none;html=1;rounded=0;" edge="1" parent="1" source="muNRo6QNs-Cm7K3Dtx6o-8" target="muNRo6QNs-Cm7K3Dtx6o-48">
          <mxGeometry relative="1" as="geometry">
            <mxPoint x="237" y="202" as="sourcePoint" />
            <mxPoint x="165" y="240" as="targetPoint" />
          </mxGeometry>
        </mxCell>
        <mxCell id="muNRo6QNs-Cm7K3Dtx6o-48" value="TRIPULACION" style="rounded=1;arcSize=10;whiteSpace=wrap;html=1;align=center;" vertex="1" parent="1">
          <mxGeometry x="40" y="240" width="160" height="50" as="geometry" />
        </mxCell>
        <mxCell id="muNRo6QNs-Cm7K3Dtx6o-52" value="" style="endArrow=none;html=1;rounded=0;" edge="1" parent="1" source="muNRo6QNs-Cm7K3Dtx6o-3" target="muNRo6QNs-Cm7K3Dtx6o-1">
          <mxGeometry relative="1" as="geometry">
            <mxPoint x="220" y="100" as="sourcePoint" />
            <mxPoint x="220" y="168" as="targetPoint" />
          </mxGeometry>
        </mxCell>
        <mxCell id="muNRo6QNs-Cm7K3Dtx6o-1" value="" style="ellipse;whiteSpace=wrap;html=1;aspect=fixed;" vertex="1" parent="1">
          <mxGeometry x="200" y="110" width="40" height="40" as="geometry" />
        </mxCell>
        <mxCell id="muNRo6QNs-Cm7K3Dtx6o-53" value="" style="shape=requiredInterface;html=1;verticalLabelPosition=bottom;sketch=0;rotation=90;" vertex="1" parent="1">
          <mxGeometry x="205" y="145" width="30" height="100" as="geometry" />
        </mxCell>
        <mxCell id="muNRo6QNs-Cm7K3Dtx6o-54" value="" style="endArrow=none;html=1;rounded=0;" edge="1" parent="1" source="muNRo6QNs-Cm7K3Dtx6o-48" target="muNRo6QNs-Cm7K3Dtx6o-34">
          <mxGeometry relative="1" as="geometry">
            <mxPoint x="270" y="410" as="sourcePoint" />
            <mxPoint x="430" y="410" as="targetPoint" />
          </mxGeometry>
        </mxCell>
        <mxCell id="muNRo6QNs-Cm7K3Dtx6o-55" value="" style="endArrow=none;html=1;rounded=0;" edge="1" parent="1" source="muNRo6QNs-Cm7K3Dtx6o-61" target="muNRo6QNs-Cm7K3Dtx6o-5">
          <mxGeometry relative="1" as="geometry">
            <mxPoint x="145" y="300" as="sourcePoint" />
            <mxPoint x="216" y="417" as="targetPoint" />
          </mxGeometry>
        </mxCell>
        <mxCell id="muNRo6QNs-Cm7K3Dtx6o-56" value="" style="endArrow=none;html=1;rounded=0;" edge="1" parent="1" source="muNRo6QNs-Cm7K3Dtx6o-34" target="muNRo6QNs-Cm7K3Dtx6o-19">
          <mxGeometry relative="1" as="geometry">
            <mxPoint x="245" y="418" as="sourcePoint" />
            <mxPoint x="299" y="340" as="targetPoint" />
          </mxGeometry>
        </mxCell>
        <mxCell id="muNRo6QNs-Cm7K3Dtx6o-57" value="(1,n)" style="text;html=1;align=center;verticalAlign=middle;resizable=0;points=[];autosize=1;strokeColor=none;fillColor=none;" vertex="1" parent="1">
          <mxGeometry x="110" y="330" width="50" height="30" as="geometry" />
        </mxCell>
        <mxCell id="muNRo6QNs-Cm7K3Dtx6o-58" value="(1,1)" style="text;html=1;align=center;verticalAlign=middle;resizable=0;points=[];autosize=1;strokeColor=none;fillColor=none;" vertex="1" parent="1">
          <mxGeometry x="400" y="260" width="50" height="30" as="geometry" />
        </mxCell>
        <mxCell id="muNRo6QNs-Cm7K3Dtx6o-60" value="(1,n)" style="text;html=1;align=center;verticalAlign=middle;resizable=0;points=[];autosize=1;strokeColor=none;fillColor=none;" vertex="1" parent="1">
          <mxGeometry x="280" y="400" width="50" height="30" as="geometry" />
        </mxCell>
        <mxCell id="muNRo6QNs-Cm7K3Dtx6o-61" value="Pilota&lt;br&gt;1xN" style="shape=rhombus;perimeter=rhombusPerimeter;whiteSpace=wrap;html=1;align=center;" vertex="1" parent="1">
          <mxGeometry x="450" y="255" width="120" height="60" as="geometry" />
        </mxCell>
        <mxCell id="muNRo6QNs-Cm7K3Dtx6o-62" value="" style="endArrow=none;html=1;rounded=0;" edge="1" parent="1" source="muNRo6QNs-Cm7K3Dtx6o-61" target="muNRo6QNs-Cm7K3Dtx6o-19">
          <mxGeometry relative="1" as="geometry">
            <mxPoint x="300" y="400" as="sourcePoint" />
            <mxPoint x="460" y="400" as="targetPoint" />
          </mxGeometry>
        </mxCell>
        <mxCell id="muNRo6QNs-Cm7K3Dtx6o-66" value="(1,n)" style="text;html=1;align=center;verticalAlign=middle;resizable=0;points=[];autosize=1;strokeColor=none;fillColor=none;" vertex="1" parent="1">
          <mxGeometry x="500" y="330" width="50" height="30" as="geometry" />
        </mxCell>
        <mxCell id="muNRo6QNs-Cm7K3Dtx6o-67" value="Tiene&lt;br&gt;1xN" style="shape=rhombus;perimeter=rhombusPerimeter;whiteSpace=wrap;html=1;align=center;" vertex="1" parent="1">
          <mxGeometry x="640" y="400" width="120" height="60" as="geometry" />
        </mxCell>
        <mxCell id="muNRo6QNs-Cm7K3Dtx6o-68" value="(1,1)" style="text;html=1;align=center;verticalAlign=middle;resizable=0;points=[];autosize=1;strokeColor=none;fillColor=none;" vertex="1" parent="1">
          <mxGeometry x="690" y="350" width="50" height="30" as="geometry" />
        </mxCell>
        <mxCell id="muNRo6QNs-Cm7K3Dtx6o-69" value="(1,n)" style="text;html=1;align=center;verticalAlign=middle;resizable=0;points=[];autosize=1;strokeColor=none;fillColor=none;" vertex="1" parent="1">
          <mxGeometry x="590" y="400" width="50" height="30" as="geometry" />
        </mxCell>
        <mxCell id="muNRo6QNs-Cm7K3Dtx6o-70" value="" style="endArrow=none;html=1;rounded=0;" edge="1" parent="1" source="muNRo6QNs-Cm7K3Dtx6o-67" target="muNRo6QNs-Cm7K3Dtx6o-19">
          <mxGeometry relative="1" as="geometry">
            <mxPoint x="300" y="400" as="sourcePoint" />
            <mxPoint x="460" y="400" as="targetPoint" />
          </mxGeometry>
        </mxCell>
        <mxCell id="muNRo6QNs-Cm7K3Dtx6o-71" value="" style="endArrow=none;html=1;rounded=0;" edge="1" parent="1" source="muNRo6QNs-Cm7K3Dtx6o-67" target="muNRo6QNs-Cm7K3Dtx6o-21">
          <mxGeometry relative="1" as="geometry">
            <mxPoint x="650" y="440" as="sourcePoint" />
            <mxPoint x="600" y="440" as="targetPoint" />
          </mxGeometry>
        </mxCell>
      </root>
    </mxGraphModel>
  </diagram>
</mxfile>
